<?xml version="1.0" encoding="utf-8"?>
<!-- Generator: Adobe Illustrator 21.1.0, SVG Export Plug-In . SVG Version: 6.00 Build 0)  -->
<svg version="1.1" id="Calque_1" xmlns="http://www.w3.org/2000/svg" xmlns:xlink="http://www.w3.org/1999/xlink" x="0px" y="0px"
	 viewBox="0 0 432 432" style="enable-background:new 0 0 432 432;" xml:space="preserve">
<style type="text/css">
	.st0{fill:#1B1B1B;}
	.st1{fill:#921E23;}
	.st2{fill:#DAB0B3;}
	.st3{fill:#343434;}
	.st4{fill:#C69C6C;}
	.st5{fill:#AD9DAF;}
	.st6{fill:#C7696C;}
	.st7{fill:#A5A56E;}
	.st8{fill:#509B89;}
	.st9{fill:#5A5151;}
	.st10{fill:#7B484D;}
	.st11{fill:#D2A1A6;}
	.st12{fill:#966C71;}
	.st13{fill:#4E4D4D;}
	.st14{fill:#83A67F;}
	.st15{fill:#CFAC75;}
	.st16{fill:#877979;}
	.st17{fill:#BCBCD1;}
	.st18{fill:#B4B1A2;}
	.st19{fill:#D5A7AA;}
	.st20{fill:#D1BC8C;}
	.st21{fill:#88AF8F;}
	.st22{fill:#CCB27F;}
	.st23{fill:#B8CFBC;}
	.st24{fill:#CA8A8C;}
	.st25{fill:#5B6781;}
	.st26{fill:#676767;}
	.st27{fill:#2B3447;}
	.st28{fill:#D1C6E3;}
	.st29{fill:#DDCD72;}
	.st30{fill:#8BA1C9;}
	.st31{fill:#E299C2;}
	.st32{fill:#BC8B59;}
	.st33{fill:#913E41;}
	.st34{fill:#BFABB3;}
	.st35{fill:#AB5D7B;}
	.st36{fill:#5D2A3E;}
	.st37{fill:#A49D78;}
	.st38{fill:#A4787A;}
	.st39{fill:#DEC968;}
	.st40{fill:#D19962;}
	.st41{fill:#AB585E;}
	.st42{fill:#7FAEDD;}
	.st43{fill:#CDCCCC;}
	.st44{fill:#F9B03D;}
	.st45{fill:#778DAE;}
	.st46{fill:#A494A7;}
	.st47{fill:#DDB58F;}
	.st48{fill:#615757;}
	.st49{fill:#B0C0D9;}
	.st50{fill:#A08B99;}
	.st51{fill:#8198AD;}
	.st52{fill:#D5B9A2;}
	.st53{fill:#6D91A9;}
	.st54{fill:#020203;}
	.st55{fill:#9489C1;}
	.st56{fill:#A57C9C;}
	.st57{fill:#824B70;}
	.st58{fill:#917C95;}
	.st59{fill:#A67D52;}
	.st60{fill:#5F7C50;}
	.st61{fill:#413939;}
	.st62{fill:#96AF8F;}
	.st63{fill:#E38CBA;}
	.st64{fill:#5D675F;}
	.st65{fill:#886873;}
	.st66{fill:#B2191D;}
	.st67{fill:#D99B9D;}
	.st68{fill:#8D5859;}
	.st69{fill:#E1AFB1;}
	.st70{fill:#AF8358;}
	.st71{fill:#FBC063;}
	.st72{fill:#A98199;}
	.st73{fill:#55735C;}
	.st74{fill:#C7A866;}
	.st75{fill:#6D8372;}
	.st76{fill:#A57B7C;}
	.st77{fill:#998F8F;}
	.st78{fill:#929D95;}
	.st79{fill:#581111;}
	.st80{fill:#D09D69;}
	.st81{fill:#8D5459;}
	.st82{fill:#C6905C;}
	.st83{fill:#5C7460;}
	.st84{fill:#BA999A;}
	.st85{fill:#B7B6D1;}
	.st86{fill:#539FA3;}
	.st87{fill:#B4B4B4;}
	.st88{fill:#746458;}
	.st89{fill:#CDA780;}
	.st90{fill:#EB5B28;}
	.st91{fill:#E2CE6A;}
	.st92{fill:#B6A9D3;}
	.st93{fill:#4F998B;}
	.st94{fill:#BAACD5;}
	.st95{fill:#60A88D;}
	.st96{fill:#879FAE;}
	.st97{fill:#35444D;}
	.st98{fill:#C18F5C;}
	.st99{fill:#9CA578;}
	.st100{fill:#E8C2C4;}
	.st101{fill:#C1292E;}
	.st102{fill:#AF9BB2;}
	.st103{fill:#617F63;}
	.st104{fill:#B6555C;}
	.st105{fill:#CC9864;}
	.st106{fill:#D3989E;}
	.st107{fill:#78B1B7;}
	.st108{fill:#C091A7;}
</style>
<g>
	<path class="st16" d="M293.5,324.2c0.7-9.3-0.2-24.1-2.1-28.4c-0.3,0.3-0.5,0.6-0.7,0.9c-1.1,1.7-2.2,3.4-3.2,5.2
		c-1.9,3.4-3.9,6.9-6.3,10c-1.4,1.9-3,3.6-4.9,5c-2.4,1.7-5,2.7-7.9,2.6c-3.7-0.2-6.7-1.8-8.9-4.8c-2.1-2.8-3.4-6-4-9.4
		c-0.2-1.4-0.4-2.7-0.6-4.4c-0.2,0.5-0.4,0.7-0.5,1c-1.5,2.7-2.9,5.5-4.5,8.1c-0.9,1.5-2,2.8-3,4.2c-0.4,0.6-1,1-1.5,1.5
		c-3.8,3.3-8,1.8-10.3-0.6c-1-1.1-1.7-2.3-2.2-3.7c-0.1-0.3-0.3-0.7-0.5-1.2c-0.2,0.5-0.3,0.8-0.5,1.1c-1.1,2.8-2.2,5.6-3.9,8.1
		c-0.7,1.1-1.5,2.2-2.3,3.2c-1.1,1.3-2.4,2.3-4,3c-1.4,0.6-2.9,0.8-4.4,0.4c-2.3-0.6-4.2-1.7-5.6-3.6c-2-2.7-3.1-5.8-3.7-9.1
		c-0.7-3.7-0.7-7.4-0.3-11.1c0-0.2,0-0.4,0-0.6c0-0.1,0-0.1-0.1-0.3c-2.8,1.5-5.8,2.4-9,2.5c-0.1,0.6-0.3,1.1-0.4,1.7
		c-1.3,5.1-3,10.1-5.7,14.7c-0.7,1.1-1.4,2.2-2.3,3.2c-1.4,1.6-3.2,2.8-5.4,3.1c-1.4,0.2-2.8,0-4-0.6c-2-0.9-3.5-2.3-4.9-3.9
		c-1.7-2-3-4.3-4-6.8c-1.9-4.5-3.1-9.3-3.8-14.1c-0.2-1.2-0.3-2.4-0.4-3.6c0-0.2-0.1-0.4-0.2-0.8c-0.2,0.4-0.4,0.7-0.5,0.9
		c-1.4,2.7-2.8,5.5-4.1,8.2c-1,2-2.2,3.9-3.7,5.7c-1.1,1.2-2.3,2.2-3.8,2.7c-1.8,0.6-3.6,0.4-5.3-0.5c-1.7-1-3-2.5-3.8-4.3
		c-1.1-2.4-1.7-4.9-2.2-7.5c0-0.2-0.1-0.4-0.2-0.8c-0.2,0.3-0.4,0.5-0.4,0.7c-0.6,1.3-1.2,2.6-1.8,3.8c-1.9,3.8-4,7.5-6.7,10.8
		c-0.8,1-1.8,1.8-2.9,2.4c-2.5,1.3-4.9,1.2-7.3-0.3c-1.5-1-2.8-2.3-3.6-3.9c-1.2-2.4-1.9-4.9-2.3-7.5c-0.1-0.6-0.2-1.3-0.3-2
		c-0.4,0.2-0.5,0.6-0.6,0.9c-1.3,3-2.9,5.9-4.6,8.7c-1.3,2-2.8,3.9-4.7,5.3c-3.1,2.4-7.2,2.6-10.4,0.6c-1.4-0.9-2.5-2.1-3.4-3.5
		c-1.4-2.2-2.3-4.7-2.7-7.2c-1.2-7.1-0.5-14,2.6-20.6c0.7-1.6,1.6-3,2.7-4.4c4.4-5.4,12.4-6.4,17.7-1.9c1.3,1.1,2.5,2.4,3.7,3.6
		c0.2,0.2,0.4,0.5,0.7,0.9c0.2-0.7,0.2-1.3,0.4-1.9c0.2-0.8,0.4-1.6,0.8-2.3c0.6-1.1,1.6-1.8,3-1.7c1.3,0.1,2.3,0.8,2.8,2
		c0.5,1.1,0.6,2.3,0.5,3.5c-0.1,1.6-0.3,3.2-0.4,4.7c-0.3,3.6-0.7,7.3-0.5,10.9c0.1,1.8,0.4,3.5,0.7,5.3c0.3,1.9,1.3,3.6,2.3,5.2
		c0.7,1.1,1.4,1.3,2.5,0.6c0.8-0.4,1.5-1,2.2-1.6c1.4-1.3,2.5-2.8,3.4-4.5c1.3-2.4,2.4-4.8,3.6-7.2c0.8-1.7,1.5-3.5,2.3-5.2
		c0.4-0.8,0.5-1.5,0.6-2.3c0.1-1.7,0.2-3.4,0.4-5c0.1-0.8,0.3-1.5,0.6-2.2c0.6-1.5,2-2.3,3.4-2.2c1.4,0.1,2.7,1.1,3,2.6
		c0.2,1.1,0.3,2.2,0.3,3.3c0,1.6-0.1,3.2-0.2,4.8c-0.1,3.5,0.2,6.9,1.3,10.3c0.5,1.4,1.1,2.7,2,4c0.4,0.6,0.7,0.7,1.4,0.4
		c0.7-0.3,1.4-0.7,1.9-1.3c1-1.1,2-2.3,2.9-3.5c2.7-4.1,4.9-8.6,6.3-13.4c0.2-0.6,0.3-1.2,0.4-1.9c0.2-1.5,1.1-2.6,2.4-3
		c1.4-0.4,2.8,0.2,3.7,1.4c1,1.3,1.2,2.8,1.4,4.4c0.4,3.4,0.7,6.9,1.2,10.3c0.6,3.8,1.6,7.4,3.2,10.9c0.7,1.5,1.5,3,2.6,4.3
		c0.6,0.7,1.4,1.3,2.1,1.8c1.2,0.8,1.9,0.7,2.9-0.3c0.5-0.5,1-1,1.4-1.6c1.2-1.6,2.2-3.3,3-5.2c1.1-2.8,2-5.6,3-8.4
		c0.1-0.2,0.1-0.4,0.1-0.7c-0.3-0.2-0.6-0.3-0.9-0.5c-3.1-1.4-5-3.8-5.9-7.1c-1.1-4-1.2-7.9,0.1-11.8c0.3-1,0.8-1.9,1.3-2.7
		c0.4-0.7,1-1.3,1.7-1.7c1.8-1.3,3.8-1.1,5.3,0.4c1,1,1.7,2.2,2.3,3.6c0.7,1.8,1.1,3.7,1.3,5.7c0.4,3.1,0.2,6.3-0.1,9.4
		c0,0.3-0.1,0.6-0.1,1c1.3,0.2,2.5,0.2,3.7-0.2c1.8-0.6,3.5-1.5,5.3-2.2c0.5-0.2,0.6-0.6,0.7-1c0.9-2.5,2.1-4.9,3.8-7
		c1.5-1.8,3.2-3.3,5.3-4.3c2.8-1.4,5.6-1.5,8.5-0.2c1.5,0.7,2.9,1.6,4.2,2.6c0.2,0.2,0.5,0.4,0.8,0.6c0.1-0.4,0.2-0.7,0.3-1
		c0.2-0.6,0.4-1.3,0.8-1.9c0.8-1.3,2.2-1.9,3.6-1.7c1.4,0.3,2.4,1.3,2.7,2.8c0.1,0.9,0.2,1.7,0.1,2.6c-0.2,2.7-0.5,5.4-0.7,8.1
		c-0.2,3.7,0.1,7.3,1,10.9c0.4,1.5,1.1,2.7,2,3.9c0.4,0.5,0.8,0.7,1.4,0.4c0.5-0.2,1-0.5,1.4-0.8c1.4-1.1,2.5-2.4,3.4-3.9
		c0.9-1.5,1.8-3.1,2.7-4.6c1.4-2.7,2.8-5.4,4.2-8.1c0.3-0.5,0.4-1.1,0.5-1.6c0.4-1.9,0.6-3.7,1-5.6c0.2-1,0.6-1.9,1.2-2.7
		c0.8-1,1.9-1.6,3.3-1.4c1.6,0.2,2.8,1.4,3,3.1c0.1,0.8,0,1.6-0.1,2.3c-0.6,3.9-1.1,7.7-0.9,11.7c0.1,1.9,0.3,3.8,0.8,5.6
		c0.8,2.9,2.5,5.4,4.8,7.4c1.3,1.1,2.8,1.3,4.4,0.9c1.3-0.3,2.3-1,3.3-1.9c1.8-1.5,3.2-3.4,4.5-5.3c2.2-3.3,4.2-6.7,5.9-10.3
		c0.7-1.6,1.5-3.2,2.3-4.7c0.3-0.5,0.6-1.1,0.9-1.5c1.5-1.9,3.8-2.3,5.9-1.1c1.2,0.7,2,1.8,2.6,3c1.1,2.1,1.6,4.3,2,6.6
		c1.1,7.3,1.5,14.7,1.3,22.1c0,0.5,0,1,0,1.5c0,0.1,0,0.2,0.1,0.4c0.6-0.1,1.1-0.1,1.7-0.2c4.3-0.3,8.7-0.6,13-0.8
		c5.6-0.3,11.2-0.5,16.8-0.8c3.7-0.2,7.2-0.9,10.6-2.4c3.4-1.5,6.2-3.8,8.2-7c1.2-2,2-4.2,1.9-6.6c-0.1-1.8-0.7-3.4-2-4.7
		c-0.7-0.7-1.4-1.1-2.3-1.4c-0.6-0.2-1.1-0.5-1.6-0.8c-1-0.8-1.4-1.9-1.1-3.1c0.3-1.2,1.1-2,2.3-2.3c0.7-0.2,1.4-0.2,2.1-0.1
		c3.9,0.7,6.6,3,8.3,6.4c2.1,4.2,1.9,8.5-0.1,12.7c-2.6,5.2-6.6,8.9-11.8,11.5c-4,2-8.3,3-12.7,3.6c-3.8,0.5-7.6,0.6-11.4,0.6
		c-5.4,0-10.7,0.1-16.1,0.6c-2,0.2-3.9,0.5-6,0.7c0,0.6-0.1,1.1-0.1,1.6c-0.3,2.9-0.5,5.9-0.9,8.8c-0.7,5.1-1.9,10.1-4.3,14.8
		c-1.9,3.8-4.5,7.2-7.8,9.9c-3.3,2.7-7.1,3.9-11.3,3.7c-2.1-0.1-4.1-0.7-5.8-1.9c-3.4-2.3-5.6-5.5-6.6-9.5c-0.6-2.6-0.3-5.2,0.6-7.8
		c1.4-4.3,3.8-7.9,7-11.1c5.8-5.8,12.7-9.9,20.5-12.4C292.7,324.4,293.1,324.3,293.5,324.2z M293.2,330.3c-0.2,0-0.2,0-0.3,0
		c-0.3,0.1-0.6,0.2-0.9,0.3c-5.8,1.9-11.2,4.9-16,8.7c-1.4,1.1-2.7,2.4-3.9,3.7c-2.1,2.3-3.5,5-4.2,8.1c-0.4,2.1-0.4,4.2,0.8,6
		c0.7,1.1,1.6,2.1,2.6,2.9c1.7,1.4,3.6,1.8,5.7,1.1c0.5-0.2,1-0.3,1.4-0.5c2.3-1.1,4.3-2.5,6.1-4.3c3-2.9,4.8-6.5,6.1-10.5
		c1.2-4,1.9-8.1,2.2-12.3C293.1,332.3,293.1,331.3,293.2,330.3z M99.1,303.7c0.1,1.4,0.2,2.8,0.4,4.1c0.4,2.6,1.2,5.1,3.2,7
		c1.2,1.2,2.9,1.4,4.1,0.5c1.1-0.8,2.2-1.7,3.1-2.7c1.3-1.6,2.6-3.3,3.7-5c1.7-2.8,3.1-5.7,4.6-8.5c0.2-0.3,0.3-0.8,0.3-1.2
		c0.1-1.7,0.2-3.4,0.4-5.1c0-0.5-0.1-0.9-0.3-1.3c-1.7-2.4-3.8-4.2-6.4-5.4c-2.6-1.2-5.1-0.7-7.2,1.3c-1.4,1.4-2.4,3-3.3,4.7
		C100,295.8,99.2,299.7,99.1,303.7z M226,290.7c-0.5,0.1-1,0.1-1.5,0.2c-1.9,0.4-3.5,1.4-4.7,3c-1.7,2.1-2.8,4.4-3.5,7
		c-1,3.7-0.8,7.4-0.1,11.1c0.4,1.9,0.8,3.8,1.7,5.5c0.4,0.7,0.8,1.5,1.4,2.1c1,1.1,2.4,1.2,3.5,0.2c0.7-0.5,1.2-1.1,1.8-1.8
		c1.3-1.5,2.3-3.2,3.1-4.9c1.1-2.4,2.2-4.8,3.2-7.3c0.2-0.4,0.2-0.9,0.1-1.4c-0.1-1.2-0.3-2.4-0.3-3.6c0-2.3,0.1-4.6,0.1-7
		c0-0.3,0-0.7-0.2-0.9C229.4,291.7,228,290.6,226,290.7z M195.6,297.5c0.1-0.3,0.1-0.4,0.1-0.5c0.4-2.6,0.5-5.3,0.3-8
		c-0.1-1.8-0.5-3.6-1.4-5.2c-0.3-0.6-0.7-1.2-1.3-1.5c-0.9,0.7-1.2,1.7-1.5,2.7c-0.9,3.8-0.1,7.3,1.8,10.6
		C194.2,296.3,194.8,296.9,195.6,297.5z"/>
	<g>
		<path class="st16" d="M241.7,118.5c0.6-0.6,1.2-1.1,1.7-1.8c1-1.4,2.1-2.8,3-4.3c2.9-4.7,5.8-9.4,9.2-13.7
			c1.9-2.3,3.8-4.6,5.9-6.8c1.1-1.2,2.4-2.2,3.7-3.1c2.9-1.9,6-2,9.1-0.2c1.3,0.8,2.5,1.6,3.5,2.7c1.6,1.7,3.1,3.5,4.5,5.3
			c2.8,3.7,5,7.6,7.3,11.6c1,1.7,2,3.4,3.1,5.1c0.5,0.8,1.1,1.5,2,2c0.8-0.7,1.6-1.5,2.1-2.4c0.8-1.5,1.6-3,2.2-4.5
			c1.6-4.1,3-8.3,4.5-12.4c2.3-6.6,4.7-13.3,7.7-19.6c0.8-1.8,1.8-3.6,2.8-5.4c0.8-1.4,1.9-2.6,3-3.8c0.5-0.6,1.2-1.1,1.9-1.5
			c2.1-1.3,4.3-1.3,6.4-0.1c1.2,0.7,2.1,1.6,2.9,2.6c1.2,1.6,2.3,3.3,3.4,5c2.8,4.8,5,10,7.1,15.2c2.3,5.6,4.5,11.2,7.1,16.6
			c1.6,3.3,3.5,6.4,6,9.1c1.2,1.4,2.7,2.5,4.4,3c1.3,0.4,2.6,0.5,4,0.1c2.3-0.6,4.5-1.7,6.5-3c0.4-0.2,0.7-0.5,1.1-0.6
			c0.6-0.2,1.1-0.1,1.4,0.2c0.3,0.4,0.3,0.9,0,1.4c-0.1,0.2-0.3,0.4-0.4,0.5c-2.7,2.6-5.9,4.3-9.6,4.8c-2.5,0.4-4.8-0.4-7-1.6
			c-1.4-0.8-2.6-1.9-3.7-3.1c-2.6-2.8-4.6-5.9-6.3-9.3c-2.6-5.3-4.9-10.7-7.1-16.2c-1.6-3.9-3.4-7.8-5.2-11.6
			c-1.1-2.4-2.5-4.6-4.2-6.6c-0.7-0.9-1.4-1.7-2.5-2.2c-0.7,0.4-1,1.1-1.3,1.7c-1.2,2.5-2.5,5-3.6,7.5c-3.4,7.7-6.2,15.6-8.9,23.6
			c-1.2,3.4-2.5,6.8-3.8,10.1c-0.8,2.1-2,4-3.4,5.7c-0.9,1-1.9,1.9-3.1,2.6c-2.2,1.2-4.4,1.1-6.5-0.3c-1.4-0.9-2.5-2.1-3.3-3.5
			c-0.7-1.2-1.4-2.5-2.1-3.7c-1.8-3.5-3.6-6.9-5.5-10.4c-1.5-2.8-3.4-5.4-5.5-7.7c-0.9-0.9-1.9-1.8-3-2.6c-1-0.7-1.7-0.7-2.6,0.1
			c-1.5,1.4-3,2.8-4.3,4.2c-4.5,5-8.3,10.5-11.8,16.2c-1.1,1.9-2.3,3.7-3.5,5.5c-1.2,1.9-2.7,3.5-4.5,4.9c-1.1,0.8-2.3,1.4-3.7,1.6
			c-2,0.3-3.8-0.2-5.4-1.4c-1.1-0.8-2.1-1.8-2.7-3.1c-0.9-1.7-1.7-3.4-2.4-5.2c-3.5-9.2-6.8-18.4-10.3-27.5c-1-2.6-2.2-5.1-3.5-7.6
			c-0.7-1.3-1.5-2.5-2.5-3.5c-1.5-1.7-2.4-1.8-4.2-0.3c-1.8,1.5-3.5,3.2-4.7,5.2c-1.5,2.3-3,4.7-4.3,7.1c-2.2,4.2-4.4,8.4-6.5,12.6
			c-2,4-4.2,8-7,11.6c-2.2,2.9-4.6,5.4-7.6,7.5c-2.1,1.4-4.3,2.5-6.8,3c-0.7,0.1-1.4,0.2-2.2,0.3c-0.8,11.5-1,23,1,34.4
			c0.2-1.1,0.4-2.3,0.7-3.4c0.8-3.3,1.9-6.5,3.6-9.5c1.7-3,3.9-5.6,7-7.4c4.5-2.7,9.1-2.4,13.1,0.9c2.8,2.2,4.5,5.1,5.4,8.5
			c0.6,2.1,1,4.3,1.4,6.5c3.9-1.3,10.5-12.6,10.3-17.8c-1,0.2-2,0.5-3,0.7c-1.5,0.3-3,0.3-4.5,0.1c-3.7-0.7-6.2-3.4-6.5-7.1
			c-0.3-2.7,0.4-5.1,2.3-7.1c2.4-2.6,6-3.3,9.2-1.8c3.4,1.6,5.3,4.3,6.1,7.9c0.1,0.6,0.2,1.2,0.4,1.8c1.3-0.4,2.6-0.7,3.8-1.1
			c1.8-0.5,3.6-0.6,5.5-0.2c4,0.9,6.8,3.8,7.5,7.9c0.4,2.2,0.4,4.5,0.1,6.7c-0.6,4.8-1.3,9.5-1.8,14.3c-0.5,4.5-0.8,8.9-1.2,13.4
			c-0.2,2.3,0.1,4.6,0.5,7.1c0.3-0.2,0.6-0.2,0.8-0.4c0.8-0.8,1.8-1.6,2.4-2.5c1.5-2.2,2.9-4.4,4.3-6.6c1.2-2,2.3-4,3.4-6.1
			c0.3-0.5,0.4-1.1,0.4-1.7c-0.5-4.2-0.5-8.5,0.2-12.7c0.5-3,1.3-5.9,3-8.4c2.5-3.6,5.9-5.7,10.3-5.7c1.7,0,3.3,0.5,4.8,1.3
			c2.5,1.3,4.7,3,6.4,5.3c0.1,0.2,0.3,0.3,0.4,0.5c0,0,0.1,0,0.2,0.1c0.2-0.8,0.3-1.6,0.5-2.4c0.3-1.1,0.5-2.2,0.8-3.2
			c0.3-0.9,0.7-1.7,1.4-2.3c1.6-1.5,3.8-1.1,4.8,0.8c0.6,1.1,0.7,2.4,0.6,3.6c-0.2,1.7-0.4,3.4-0.6,5.1c-0.7,5.2-1.2,10.4-0.7,15.7
			c0.3,4.1,1.4,8,3.2,11.7c0.2,0.4,0.4,0.8,0.7,1.2c0.4,0.5,0.8,0.7,1.4,0.4c0.7-0.4,1.4-0.9,2-1.4c1.4-1.3,2.6-2.9,3.6-4.6
			c1.9-3.1,3.7-6.3,5.7-9.3c0.9-1.4,1.3-2.8,1.4-4.4c0.2-3,0.8-6,2-8.7c0.5-1.2,1.2-2.4,2-3.5c1.6-2.3,3.9-3.5,6.7-3.9
			c1.1-0.1,2.2,0.1,3.3,0.4c3.8,1.2,6.9,5.4,7,9.4c0,0.5-0.1,1.1-0.3,1.6c-0.3,0.8-1,0.8-1.5,0.1c-0.3-0.6-0.6-1.2-0.9-1.8
			c-0.5-1.1-1.1-2.1-1.9-2.8c-0.6-0.5-1.3-1-2.1-1.4c-1.3-0.6-2.4-0.3-3.3,0.8c-0.9,1.1-1.6,2.3-2.1,3.7c-0.9,2.5-1.4,5-1.5,7.6
			c-0.3,5.4,0.3,10.7,2.4,15.8c0.6,1.4,1.3,2.8,2.1,4.1c0.9,1.6,2.3,2.7,3.7,3.8c0.7,0.5,1.5,0.3,2.2,0c1.5-0.6,2.7-1.6,3.7-2.8
			c1.5-1.8,2.9-3.8,3.9-6c1.7-3.7,3.5-7.4,5.5-11c0.6-1,0.8-2,0.9-3.2c0.2-2.9,0.8-5.7,1.8-8.5c0.9-2.4,2.2-4.7,4-6.6
			c2.1-2.3,4.7-3.6,7.8-3.7c4.5-0.2,7.8,2.8,8.2,7.3c0.2,2.4-0.3,4.6-1.6,6.6c-2.8,4.3-6.7,6.5-11.8,6.6c-0.2,0-0.5,0-0.7,0
			c-0.1,0.2-0.2,0.3-0.2,0.4c-0.2,3.2,0,6.4,1.1,9.5c1.4,3.9,4.2,6.5,7.9,8.1c1.4,0.6,2.8,0.5,4.1-0.2c1.2-0.6,2.5-1.2,3.6-2.1
			c2.1-1.7,4.2-3.4,6.2-5.3c3.8-3.6,7.3-7.5,10.6-11.5c0.7-0.9,1.6-1.6,2.5-2.4c0.4-0.4,0.9-0.6,1.5-0.4c0.9,0.2,1.3,1.1,0.9,2
			c-0.5,1-1,2-1.7,2.9c-2.5,3.2-5.1,6.4-7.7,9.6c-2.6,3.2-5.5,6.1-8.7,8.8c-2.1,1.7-4.4,3.2-6.9,4.4c-4,1.8-7.8,1.5-11.5-1
			c-4.8-3.2-7.6-7.7-8.9-13.3c-0.1-0.5-0.2-1-0.4-1.7c-0.2,0.4-0.4,0.6-0.5,0.9c-1.5,2.9-2.9,5.8-4.4,8.6c-1.2,2.3-2.8,4.5-4.6,6.4
			c-1.6,1.7-3.4,3.1-5.6,3.8c-2.4,0.8-4.7,0.4-6.8-0.9c-1.8-1.1-3.2-2.6-4.4-4.4c-2.2-3.3-3.7-6.9-4.7-10.8
			c-0.4-1.8-0.7-3.7-1.1-5.5c0-0.2-0.1-0.4-0.2-0.7c-0.3,0.4-0.4,0.7-0.6,1c-2.1,3.4-4.1,6.9-6.7,10c-1,1.1-2,2.2-3.1,3.2
			c-2.7,2.3-6,2.3-8.8,0.2c-1.9-1.4-3.2-3.3-4.1-5.4c-1-2.5-1.6-5.1-2-7.7c0-0.3-0.1-0.5-0.1-0.8c0-0.1-0.1-0.1-0.2-0.2
			c-0.8,1.7-1.6,3.4-2.4,5.1c-1.3,2.8-2.7,5.6-4.7,8c-0.9,1.1-2,2.1-3.2,2.9c-2.1,1.3-4.2,1.4-6.4,0.2c-2.2-1.1-3.8-2.8-4.7-5.1
			c-0.7-1.6-1.2-3.3-1.8-4.9c-0.1-0.2-0.2-0.5-0.3-0.8c-2.1,4.3-4.6,8.3-7.3,12.1c-0.9,1.2-1.9,2.4-3.1,3.3c-2.1,1.6-4.3,1.6-6.5,0
			c-0.9-0.7-1.6-1.5-2.2-2.5c-0.6-1.1-0.9-2.2-1.1-3.4c-0.4-2.4-0.3-4.8-0.1-7.3c0.6-8,1.5-15.9,2.7-23.8c0.5-3,0.6-6.1,0.3-9.2
			c-0.2-1.8-0.9-2.6-2.7-3c-0.6-0.1-1.2-0.1-1.8-0.1c-1.6,0.1-3.1,0.6-4.5,1.1c-0.4,1.9-0.7,3.8-1.2,5.6c-1.3,4.9-3.6,9.2-6.7,13.1
			c-1.6,2-3.7,3.7-5.8,5.1c-0.6,0.4-0.8,0.8-0.8,1.5c-0.8,7.4-3.6,14-8.9,19.3c-2.1,2.1-4.6,3.4-7.5,3.9c-1.5,0.3-3,0.2-4.5-0.2
			c-3.9-1.1-6.1-5.2-5.1-9.3c0.4-1.5,1.1-2.9,2-4.1c2.5-3.4,5.7-6,9.6-7.7c2-0.9,4.1-1.8,6.1-2.7c0.5-0.2,0.7-0.5,0.8-1
			c0.1-4.3-0.5-8.5-2.6-12.4c-0.6-1-1.3-2-2.2-2.9c-1.3-1.4-2.9-1.8-4.8-1.2c-1.8,0.6-3.3,1.6-4.7,2.9c-2.3,2.3-3.7,5.1-4.7,8.1
			c-1.1,3.3-1.7,6.6-2.1,10.1c-0.2,1.8-0.3,3.6-0.4,5.3c0,0.9,0,1.7,0,2.6c0,0.6,0,1.3,0,1.9c-0.3,2.3-2.4,3.4-4.4,2.4
			c-0.4-0.2-0.7-0.4-1.1-0.6c-0.1,0.2-0.2,0.4-0.3,0.6c-1,2.7-2,5.4-3.2,8c-0.9,2-1.9,3.9-3,5.8c-0.5,0.8-1.1,1.6-1.8,2.3
			c-1.6,1.6-3.6,1.8-5.6,0.6c-1.4-0.8-2.4-1.9-3.2-3.3c-1-1.7-1.4-3.6-1.8-5.6c-0.8-4.3-1.2-8.7-1.4-13.1c-0.3-4.8-0.4-9.7-0.6-14.5
			c-0.2-3.1-0.6-6.1-1.4-9.1c-0.5-1.7-0.8-2.4-1.7-3.3c-0.3,0.1-0.7,0.2-0.9,0.5c-0.8,0.8-1.7,1.5-2.4,2.4c-2,2.4-3.2,5.3-4.2,8.2
			c-1.7,5-2.7,10.1-3.4,15.2c0,0.2,0,0.4,0,0.6c-0.2,2.7-3,4.2-5.3,2.9c-1.3-0.7-2.1-1.9-2.5-3.3c-0.4-1.4-0.8-2.8-1-4.2
			c-1-4.7-1.9-9.5-3.4-14.1c-0.4-1.1-0.8-2.2-1.3-3.2c-0.3-0.6-0.8-1.2-1.3-1.8c-0.4-0.4-0.8-0.4-1.3-0.2c-0.5,0.3-1,0.6-1.4,1
			c-1.2,1.2-2.1,2.6-2.9,4.1c-1.5,2.9-2.3,6-3,9.1c-0.7,3-0.9,6.1-1.2,9.2c-0.1,1.1-0.2,2.3-0.4,3.4c-0.5,2.8-3.2,3.9-5.6,2.5
			c-1.3-0.8-2.2-1.9-2.6-3.3c-0.7-2-1.4-4.1-1.8-6.2c-0.8-3.9-1.4-7.9-2-11.8c0-0.2-0.1-0.3-0.1-0.7c-0.3,0.5-0.5,0.8-0.6,1.1
			c-3.1,5.8-6.2,11.7-9.3,17.5c-1.4,2.5-3,4.8-5.1,6.7c-0.9,0.9-1.9,1.7-3,2.3c-2.8,1.7-5.8,1.9-8.8,0.7c-1.7-0.7-3.2-1.6-4.4-2.9
			c-3-3-4.9-6.7-6-10.7c-1.8-6.7-1.7-13.3,0.9-19.7c0.6-1.6,1.5-3.2,2.5-4.6c2-2.7,4.7-4.6,8-5.2c5-1,10.2,1,12,6.6
			c0.9,2.7,0.6,5.3-0.6,7.8c-2.2,4.4-5.5,7.8-9.9,10.1c-1.6,0.8-3.4,1.1-5.1,1.6c-0.2,0-0.4,0.1-0.6,0.2c0,0.2,0,0.3,0,0.5
			c0.9,3.8,2.6,7.1,5.7,9.6c0.4,0.3,0.8,0.6,1.2,0.9c1.5,1.1,3.2,1,4.8,0.2c1.7-0.9,3.2-2.2,4.4-3.6c2.5-3,4.6-6.2,6.4-9.7
			c2.3-4.3,4.6-8.7,6.9-13c0.2-0.4,0.2-0.8,0.2-1.3c0-1.3-0.2-2.6-0.1-3.8c0-0.8,0.2-1.6,0.6-2.3c0.5-1.2,1.5-1.9,2.9-1.9
			c1.3,0,2.3,0.6,3,1.7c0.7,1.1,0.8,2.3,1,3.6c0.6,4.5,1.2,9.1,1.8,13.6c0.3,2.2,0.8,4.3,1.4,6.5c0.1-0.2,0.2-0.4,0.2-0.6
			c0.6-2.9,1.2-5.7,1.8-8.6c0.8-3.9,2.1-7.7,4.2-11.1c0.6-1,1.3-2,2.1-2.9c1.3-1.5,3-2.3,4.9-2.5c1.3-0.1,2.5,0.2,3.7,0.9
			c1.6,0.9,2.7,2.4,3.6,4c1,2,1.8,4.1,2.4,6.2c0.9,3.6,1.8,7.3,2.6,10.9c0,0.1,0,0.2,0.1,0.5c0.1-0.3,0.3-0.5,0.3-0.7
			c0.8-2.8,1.6-5.6,2.4-8.3c0.9-3.1,2-6.1,3.6-8.9c0.8-1.4,1.6-2.7,2.6-4c0.7-0.9,1.5-1.6,2.5-2.2c2.2-1.4,4.8-1.2,6.9,0.4
			c1.2,0.9,2,2.2,2.6,3.5c0.9,2,1.4,4.2,1.8,6.4c0.7,3.9,0.9,7.8,1,11.7c0.2,5.8,0.4,11.6,1,17.3c0.4,3.3,1.1,6.4,2.1,9.8
			c0.4-0.4,0.7-0.7,0.9-1.1c0.9-1.6,1.9-3.2,2.6-4.9c1.4-3.4,2.7-6.8,3.9-10.2c0.1-0.3,0.1-0.6,0-0.9c-1.5-6.2-2.5-12.4-3.1-18.7
			c-0.6-6.8-0.7-13.6-0.3-20.4c0.1-2.3,0.2-4.6,0.3-7c0-0.2,0-0.4,0-0.6c-0.3-0.1-0.6-0.3-0.9-0.4c-3.6-1.4-6.7-3.5-9.1-6.5
			c-1.3-1.6-2.6-3.3-3.7-5.1c-2.9-4.8-3.9-10-2.8-15.5c0.2-0.8,0.4-1.6,0.7-2.3c3.5-8.5,13.1-8.9,18.2-3.9c2.6,2.5,4.1,5.6,4.7,9.2
			c0.9,4.7,0.9,9.4,1,14.2c0,1.2,0,2.3,0,3.6c0.3-0.1,0.5-0.1,0.7-0.2c3.1-1.3,5.7-3.2,7.8-5.8c2.2-2.5,4-5.3,5.6-8.3
			c2.1-4.1,4.2-8.2,6.3-12.3c1.6-2.9,3.2-5.9,4.8-8.8c1.2-2.1,2.6-4,4.2-5.8c2-2.2,4.3-3.9,7.1-4.7c3.1-0.9,5.8-0.2,8.2,1.9
			c1.2,1.1,2.2,2.4,3.1,3.8c1.7,2.6,3,5.4,4.3,8.2c3.2,7.1,6.4,14.2,9.7,21.3c1.3,2.8,2.7,5.4,4.1,8.1
			C239.6,116,240.3,117.3,241.7,118.5z M251.8,156.1c0.2,2.1,0.3,3.9,0.5,5.8c0.4,4,1.7,7.8,3.6,11.3c0.8,1.5,1.4,1.6,2.8,0.7
			c0.5-0.3,1-0.7,1.4-1.2c0.6-0.7,1.1-1.4,1.6-2.1c1.5-2.2,2.7-4.5,3.7-6.9c1.1-2.6,2.2-5.1,3.2-7.7c0.2-0.4,0.3-0.9,0.3-1.4
			c0.2-2.2,0.3-4.4,0.4-6.7c0-0.5,0-0.9-0.3-1.2c-1.1-1.2-2.1-2.5-3.3-3.7c-1.4-1.4-3.1-2.3-5-2.8c-2.1-0.6-3.7-0.1-5.1,1.7
			c-0.2,0.2-0.3,0.4-0.5,0.7c-1.3,2.2-2.3,4.5-2.6,7.1C252.1,151.8,252,154.1,251.8,156.1z M165,118.4c0-0.3,0.1-0.5,0.1-0.6
			c0.3-6.2,0.2-12.3-0.7-18.4c-0.3-1.8-0.6-3.5-1.5-5.1c-1.9-3.3-6.2-4-9-1.3c-0.8,0.8-1.4,1.8-1.8,2.9c-0.7,1.9-1,3.9-0.7,6
			c0.9,7.1,4.9,12,10.9,15.6c0.2,0.1,0.4,0.2,0.6,0.3C163.6,117.9,164.2,118.1,165,118.4z M67.1,162.2c0.7-0.2,1.3-0.3,1.9-0.5
			c4.8-1.2,8.2-4.2,10.6-8.4c0.5-0.9,0.9-1.9,1.1-2.9c0.5-2.4-0.5-4.5-2.4-5.7c-1.6-1-4.2-0.8-6,0.5c-0.9,0.7-1.7,1.5-2.2,2.6
			c-1,1.8-1.8,3.8-2.3,5.8C67,156.3,66.8,159.2,67.1,162.2z M196.1,163.9c-3.6,1.5-7,3.2-9.8,5.7c-1.2,1.1-2.3,2.4-3.1,3.8
			c-0.3,0.7-0.6,1.4-0.7,2.1c-0.2,2.1,1.3,3.2,3.2,2.3c0.7-0.3,1.3-0.7,1.9-1.2c4.1-3,6.8-7.1,8.3-12
			C195.9,164.5,196,164.3,196.1,163.9z M334.4,154.3c2.2-0.1,4.1-0.3,5.9-1.3c2.3-1.2,3.9-3.1,4.4-5.7c0.2-1.3,0.1-2.6-0.6-3.8
			c-0.6-1-1.4-1.3-2.5-0.9c-0.6,0.2-1.1,0.5-1.6,0.9C336.5,146.1,335.2,150,334.4,154.3z M215.2,132.3c-0.2-1.9-0.5-3.6-1.6-5.1
			c-0.5-0.7-1.2-1.3-1.9-1.8c-1.3-0.8-2.8-0.4-3.6,0.9c-1.2,2-0.2,5,1.9,5.8C211.6,132.8,213.4,132.6,215.2,132.3z"/>
		<g>
			<g>
				<path class="st17" d="M110.3,129.6c-1.9,0.4-3.6,0-5.1-1.2c-1.3-1-2.2-2.4-2.2-4.1c-0.1-1.9,0.9-3.4,2.6-4.1
					c0.4-0.2,0.9-0.3,1.4-0.5c0.7-4.3,3.4-6.9,7.6-7.9c0.3-1,0.5-2.1,0.8-3.1c0.4-1.4,1.2-2.6,2.2-3.5c2.9-2.5,7.3-1.8,9.2,1.6
					c0.6,1.1,0.9,2.3,1,3.6c0,0.3,0.1,0.6,0.1,1c0.3,0,0.6,0.1,0.9,0.1c1.9,0.1,3.7,0.7,5.3,1.8c2.4,1.6,4,4.3,2.7,7.9
					c-0.3,0.7-0.2,1.2,0.2,1.9c1.2,2,1.7,4.1,0.8,6.4c-1.3,3.4-5.5,5-8.8,3.4c-1.2-0.6-2.2-1.4-3.2-2.3c-0.2-0.2-0.5-0.5-0.8-0.7
					c-0.2,0.2-0.5,0.4-0.7,0.6c-2.1,1.9-4.4,3.1-7.2,3.5c-3.1,0.5-5.5-0.8-6.7-3.7C110.5,130,110.4,129.9,110.3,129.6z M133.6,119.2
					c0-0.8-0.4-1.4-1-1.9c-1.1-1-2.4-1.5-3.8-1.7c-0.7-0.1-1.3-0.1-2-0.2c-1.2-0.1-2.2-0.9-2.2-2.4c0-0.7-0.1-1.5-0.1-2.2
					c-0.1-0.8-0.4-1.6-0.9-2.2c-0.8-0.9-2.2-1.1-3.1-0.4c-1.2,0.8-2.2,3.5-1.9,4.9c0.2,0.8,0,1.3-0.7,1.8c-0.7,0.6-1.5,0.9-2.5,0.9
					c-2,0-3.8,1.4-4.4,3.3c-0.2,0.6-0.2,1.3-0.3,2c-0.1,1.4-0.7,2.1-2.1,2.3c-0.3,0-0.7,0-1,0.1c-0.9,0.1-1.2,0.7-0.8,1.5
					c0.4,0.8,1.5,1.4,2.5,1.2c0.5-0.1,1-0.3,1.6-0.4c1.2-0.3,2.2,0.2,2.6,1.4c0.1,0.3,0.2,0.7,0.3,1.1c0.4,1.7,1.2,2.2,2.9,2.1
					c0.2,0,0.4-0.1,0.6-0.1c1.7-0.3,3.1-1.1,4.4-2.2c0.6-0.6,1.2-1.2,1.8-1.7c1.3-1.2,2.6-1.1,3.8,0.2c0.3,0.3,0.5,0.7,0.8,0.9
					c0.8,0.8,1.6,1.6,2.5,2.2c1,0.7,2.3,0.5,3.3-0.3c1-0.8,1.2-1.6,0.8-2.9c-0.2-0.7-0.6-1.3-1.2-1.9c-0.9-0.8-1.1-1.8-0.6-2.9
					c0.2-0.4,0.3-0.7,0.5-1.1C133.4,120.1,133.5,119.6,133.6,119.2z"/>
				<path class="st17" d="M248.2,70.3c1-0.9,1.8-1.8,2.8-2.5c3.9-2.9,9.4-1.2,11.1,3.4c0.6,1.5,0.8,3,0.5,4.6
					c-0.2,1.4-1,2.4-2.1,3.2c-0.6,0.5-0.7,1-0.6,1.7c0.4,2.1,0,4.1-1.4,5.8c-2.2,2.8-6.3,3.6-9.5,1.9c-0.9-0.5-1.8-1.1-2.8-1.8
					c-0.1,0.1-0.2,0.2-0.4,0.3c-2.7,2.8-8,4-12.1,1.3c-3-2-4.4-4.9-4-8.6c0.2-2.5,2-4.4,4.6-5c0.5-0.1,1.1-0.2,1.8-0.4
					c0.4-2.9,2.3-4.5,4.9-5.5C243.8,67.6,246.2,68.2,248.2,70.3z M252.6,85.9c2.3,0,4.1-1.6,4-3.9c0-0.7-0.2-1.5-0.3-2.2
					c-0.1-0.9,0.1-1.6,0.8-2.1c0.8-0.6,1.2-1.4,1.6-2.3c0.3-0.7,0.4-1.4,0.1-2.2c-0.2-0.5-0.4-1-0.7-1.4c-1.2-1.9-2.9-2.1-4.7-1.2
					c-1.2,0.5-1.9,1.5-2.4,2.6c-0.3,0.6-0.5,1.2-0.9,1.8c-0.8,1.3-2,1.4-3,0.3c-0.3-0.3-0.5-0.7-0.8-1c-0.5-0.5-1-1-1.6-1.4
					c-2.2-1.4-5,0.2-4.9,2.8c0,1.4-1,2.3-2.3,2.3c-0.9,0-1.8,0.3-2.6,0.5c-0.8,0.2-1.2,0.9-1.4,1.7c-0.4,1.8,0.7,4.4,2.4,5.5
					c2.6,1.6,6.2,1.1,8.2-1.1c0.2-0.3,0.5-0.6,0.7-0.8c0.9-1,2.1-1.1,3.2-0.3c0.4,0.3,0.8,0.7,1.2,1C250.2,85.2,251.2,86,252.6,85.9
					z"/>
			</g>
			<g>
				<path class="st18" d="M286.6,73.2c0.1-0.3,0.1-0.5,0.1-0.7c0.4-3.5,2.6-5.5,5.9-6.6c0.6-0.2,1.2-0.3,1.8-0.3
					c0.5,0,1.2,0.1,1.6,0.4c1,0.6,1.1,2,0.2,2.8c-0.4,0.3-0.9,0.5-1.3,0.6c-0.4,0.1-0.8,0.2-1.2,0.3c-2.2,0.6-3.4,2.4-3.3,4.6
					c0,0.3,0.1,0.7,0.1,1c-0.1,1.2-0.9,1.9-2.1,1.8c-0.6,0-1.1-0.2-1.7-0.3c-2.8-0.5-5.1,0.2-6.8,2.7c-0.2,0.3-0.5,0.7-0.7,1
					c-0.3,0.4-0.8,0.6-1.3,0.5c-0.5-0.2-0.8-0.6-0.8-1.2c-0.1-2.1,0.8-3.7,2.4-5c1.7-1.4,3.7-1.9,5.8-1.8
					C285.7,73.1,286.1,73.1,286.6,73.2z"/>
				<path class="st18" d="M175.4,78.2c0.3-0.1,0.5-0.2,0.7-0.2c2.8-0.9,5.3-0.1,7,2.3c0.5,0.7,1,1.4,0.9,2.4
					c-0.1,0.8-0.4,1.4-1.1,1.7c-0.7,0.3-1.5,0.2-2.1-0.4c-0.3-0.3-0.6-0.7-0.8-1c-0.9-1.3-1.6-1.5-3-0.9c-0.5,0.2-1,0.5-1.5,0.7
					c-1.5,0.6-2.7,0-3.2-1.5c-0.1-0.3-0.2-0.6-0.3-1c-0.5-1.8-1.7-2.7-3.5-3c-0.5-0.1-1.1-0.1-1.6-0.1c-0.8-0.1-1.3-0.3-1.4-0.9
					c-0.2-0.6,0.1-1.1,0.6-1.5c1.1-0.9,2.4-1.2,3.8-0.9c2.3,0.5,4.2,1.7,5.2,3.9C175.2,77.9,175.2,78,175.4,78.2z"/>
			</g>
		</g>
	</g>
	<g>
		<path class="st18" d="M148.3,223.7c-0.1,4.7,0,9.3,0.4,13.7c0.4,4.4,0.7,8.8,1,13.3c0.2,2,0.3,4,0.4,6c0.1,2,0.1,4,0.3,6.1
			c0,0.6,0,1.1-0.1,1.4c-0.1,1.1-0.7,1.8-2,2c-1.2,0.1-2.4,0.2-3.6,0.3c-1.2,0.1-2.4,0.1-3.6,0.2c-1.9,0.1-3.2-0.9-3.7-2.8
			c-0.1-0.3-0.1-0.6-0.1-0.9c0-0.3,0-0.6,0-0.9c-0.3-4.7-0.6-9.4-0.9-14.1c-0.3-4.7-0.5-9.4-0.7-14.1c-0.2-4.3-0.3-8.6-0.4-12.9
			c-0.1-4.3-0.2-8.6-0.3-12.9v-1.4c-0.1-0.7-0.2-1.2-0.4-1.4c-0.2-0.2-0.7-0.4-1.5-0.4c-1-0.1-2-0.1-2.9-0.1c-0.9,0-1.9,0-2.9-0.1
			c-0.3,0-0.6,0-1-0.1c-0.3-0.1-0.6-0.1-1-0.3c-0.4-0.1-0.5-0.4-0.5-0.8c0-0.4,0.1-0.7,0.5-0.8c0.4-0.2,1-0.4,1.6-0.5
			c0.5-0.1,0.9-0.1,1.4,0c0.4,0,0.9,0,1.4,0l25,0.3c0.3,0,0.6,0,1,0c0.4,0,0.7,0.1,1,0.2c0.5,0.1,0.8,0.4,0.9,0.8
			c0.1,0.5-0.2,1-0.8,1.4c-0.4,0.2-0.7,0.3-1.1,0.3c-0.4,0-0.8,0-1.1,0h-5.2c-0.7,0-1.1,0.4-1.1,1.1v1.7c0.1,2.7,0.1,5.4,0.2,8
			C148.2,218.6,148.3,221.2,148.3,223.7z"/>
		<path class="st18" d="M186.2,263.6c0.5,0.1,0.8,0.4,0.7,0.9c0,0.4-0.3,0.8-0.8,1c-0.5,0.2-1.1,0.3-1.6,0.3
			c-2.3,0.1-4.6,0.2-6.8,0.4c-2.3,0.1-4.5,0.2-6.8,0.4c-0.8,0.1-1.7,0.1-2.5,0c-0.8,0-1.7-0.2-2.5-0.6c-0.5-0.2-0.7-0.5-0.7-1
			c0-0.5,0.2-0.9,0.7-1.1c0.1-0.1,0.3-0.2,0.5-0.2c0.2,0,0.3-0.1,0.5-0.1c0.3-0.1,0.6-0.1,0.9-0.1c0.3,0,0.6-0.1,1-0.1
			c0.1-7.5,0.1-15,0.1-22.3c0-7.3,0.1-14.7,0.1-22.1c0-2.1,0-4.1-0.1-6.2c-0.1-2.1-0.1-4.1-0.2-6.2c0-0.7-0.1-1.1-0.3-1.3
			c-0.2-0.2-0.6-0.3-1.3-0.4c-0.5-0.1-0.9-0.1-1.4,0c-0.4,0-0.9,0-1.4-0.1c-0.3-0.1-0.6-0.1-0.8-0.3c-0.2-0.1-0.5-0.2-0.7-0.4
			c-0.2-0.2-0.4-0.5-0.4-0.9c0-0.1,0.1-0.3,0.2-0.5c0.1-0.2,0.2-0.3,0.4-0.3c0.5-0.2,1.2-0.4,2.1-0.4c2.9-0.2,5.8-0.5,8.7-0.6
			c2.9-0.2,5.8-0.2,8.7-0.1c0.5,0.1,0.9,0.1,1.4,0.1c0.4,0,0.8,0.2,1.3,0.5c0.5,0.2,0.8,0.6,0.8,1c0,0.5-0.3,0.9-0.8,1
			c-0.2,0.1-0.5,0.2-0.8,0.2c-0.3,0-0.6,0.1-0.9,0.1c-0.4,0.1-0.7,0.1-1,0.1c-0.3,0-0.7,0.1-1,0.2c-0.6,0.1-0.9,0.5-0.9,1.2
			c0.2,6.5,0.3,13,0.1,19.5c-0.2,6.5,0,13,0.5,19.5c0.2,2.3,0.2,4.6,0.1,7c-0.1,2.4-0.1,4.7-0.1,7.1v3.1c0.1,0.5,0.2,0.9,0.4,1.1
			c0.2,0.2,0.5,0.3,1.1,0.4c0.7,0,1.3,0,1.9,0C185,263.1,185.6,263.3,186.2,263.6z"/>
		<path class="st18" d="M205.4,211.1c-0.3,0.1-0.5,0.3-0.5,0.5c0,0.2,0,0.4,0,0.6c-0.1,4.2-0.2,8.3-0.3,12.4
			c-0.1,4.1,0,8.2,0.1,12.4c0.1,4,0.2,7.9,0.3,11.8c0.1,3.9,0.2,7.8,0.3,11.8c0.1,1,0.1,2,0,3.1c-0.2,1.1-0.8,1.7-1.7,1.9
			c-1.1,0.1-2.3,0.2-3.4,0.3c-1.1,0.1-2.2,0-3.4-0.2c-1-0.1-1.6-0.4-2-0.8c-0.4-0.4-0.6-1.1-0.6-2.2c-0.1-2-0.2-4-0.3-6
			c-0.1-2-0.2-4-0.3-6c-0.1-3.5-0.3-7-0.5-10.4c-0.2-3.4-0.4-6.9-0.6-10.4c-0.2-3.1-0.3-6.2-0.3-9.2c0-3.1-0.1-6.2-0.1-9.2
			c0-1.3,0-2.5,0-3.8c0-1.3,0-2.5,0.1-3.8c0-0.4,0-0.7,0-1.1c0-0.4,0.1-0.8,0.1-1.2c0.2-1,0.8-1.6,1.8-1.7c1.2-0.1,2.4-0.1,3.6,0
			c1.2,0.1,2.4,0.3,3.6,0.5c0.7,0.2,1.4,0.6,1.9,1.4c0.5,0.7,1,1.4,1.5,2.3c1.3,2.1,2.6,4.2,4,6.2c1.4,2,2.9,4,4.3,5.9
			c1.3,1.8,2.5,3.5,3.8,5.1c1.3,1.7,2.5,3.4,3.7,5.1c0.5,0.6,0.9,0.9,1.1,0.9c0.3,0,0.6-0.3,1-0.8c2.6-3.6,5.2-7.3,7.7-10.9
			c2.5-3.7,4.9-7.4,7.2-11.2c0.2-0.4,0.5-0.7,0.6-1c0.2-0.3,0.4-0.7,0.6-1c1.2-1.6,2.7-2.3,4.3-2.3c1,0,2,0,2.9,0
			c0.9,0,1.9,0,2.9,0.1c1.1,0,1.7,0.6,1.9,1.9c0.2,1.1,0.4,2.3,0.6,3.4c0.2,1.1,0.2,2.3,0.1,3.5c0,2.1,0,4.1,0,6.1
			c0,2-0.1,4.1-0.2,6.2c-0.4,9.2-0.5,18.5-0.3,27.7c0.1,2.4,0.1,4.7,0,7.1c-0.1,2.4-0.1,4.7-0.1,7c0,0.8-0.1,1.6-0.3,2.4
			c-0.2,0.8-0.8,1.1-1.7,1c-2.2,0-4,0.1-5.3,0.4c-1.4,0.2-2.5,0.3-3.4,0c-0.9-0.2-1.6-0.8-2-1.8c-0.5-1-0.8-2.8-1.1-5.3
			c-0.2-2.2-0.4-4.4-0.5-6.7c-0.1-2.2-0.1-4.4-0.1-6.7c0-4,0-7.9,0-11.8c0-3.9,0.1-7.8,0.2-11.8c0-2,0.1-4,0.2-6c0.1-2,0.3-4,0.4-6
			c-0.4-0.1-0.6,0-0.8,0.2c-0.1,0.3-0.3,0.5-0.4,0.7c-1.7,3.1-3.6,6-5.6,8.8c-2,2.8-4.1,5.6-6.2,8.4c-1.1,1.5-2,2.3-2.7,2.3
			c-0.6,0-1.5-0.7-2.8-2.1c-0.4-0.4-0.7-0.9-1-1.3c-0.3-0.5-0.7-0.9-1-1.4l-11.1-14.7c-0.1-0.1-0.1-0.2-0.2-0.2
			C205.6,211.2,205.5,211.1,205.4,211.1z"/>
		<path class="st18" d="M256.8,231.8c-0.1-3.8-0.1-7.6,0.1-11.3c0.2-3.7,0.4-7.5,0.5-11.3c0.1-0.9,0.1-1.8,0.3-2.7
			c0.1-0.9,0.3-1.8,0.5-2.7c0.2-1,0.5-1.6,1-1.9c0.5-0.3,1.2-0.5,2.2-0.5c0.3,0,0.6,0,0.9,0c0.3,0,0.6,0,0.9,0.1
			c3.3,0.5,6.5,0.9,9.7,1c3.2,0.2,6.4,0.4,9.7,0.7c0.5,0.1,0.9,0.1,1.4,0.1c0.4,0,0.9,0.1,1.4,0.2c0.8,0.2,1.2,0.7,1.2,1.5
			c0,0.7-0.4,1.2-1.2,1.4c-0.4,0.1-0.8,0.2-1.2,0.3c-0.4,0.1-0.8,0.1-1.1,0.1c-1.4-0.1-2.9-0.1-4.3-0.2c-1.4-0.1-2.9-0.1-4.3-0.2
			c-0.3,0-0.6,0-1,0c-0.4,0-0.7,0-1,0c-0.4,0-0.6,0.2-0.7,0.6c-0.1,0.2-0.1,0.4-0.1,0.6c0,0.2,0,0.5,0,0.7c0.1,2.4,0,4.8-0.1,7.2
			c-0.2,2.4-0.3,4.8-0.5,7.1c-0.5,5.2-0.7,10.5-0.5,15.7c0,0.4,0,0.7,0,1c0,0.3,0,0.7,0,1c0.1,0.8,0.5,1.3,1.3,1.3h2.4h2.4
			c1.3,0.1,1.8,0.5,1.7,1.3c-0.1,0.8-0.7,1.2-1.7,1.4c-0.8,0.1-1.6,0.2-2.4,0.2c-0.8,0-1.6,0-2.4,0.1c-0.7,0.1-1,0.5-1.1,1.1v1.1
			c0.1,2.1,0.3,4.2,0.4,6.3c0.1,2.1,0.3,4.2,0.4,6.3c0.1,0.9,0.3,1.5,0.5,1.7c0.2,0.2,0.9,0.3,1.9,0.3c1.4-0.1,2.7-0.2,4.1-0.2
			c1.3,0,2.7-0.1,4.1-0.1c1-0.1,1.9,0.1,2.7,0.5c0.4,0.3,0.6,0.7,0.6,1.1s-0.2,0.8-0.6,1.1c-0.2,0.1-0.3,0.2-0.5,0.3
			c-0.2,0.1-0.3,0.1-0.5,0.2c-0.5,0.1-0.9,0.2-1.3,0.2c-3.4,0.1-6.7,0.4-10,0.7c-3.3,0.4-6.5,0.7-9.9,1c-1.4,0.2-2.4,0.1-2.9-0.3
			c-0.5-0.4-0.9-1.3-1.2-2.9c-0.1-0.6-0.2-1.2-0.2-1.8c0-0.6-0.1-1.2-0.2-1.9c-0.5-4.6-0.8-9.3-1-13.8
			C256.7,241.1,256.7,236.5,256.8,231.8z"/>
	</g>
</g>
</svg>
